<?xml version="1.0" encoding="iso-8859-1"?>
<!-- Generator: Adobe Illustrator 19.0.0, SVG Export Plug-In . SVG Version: 6.00 Build 0)  -->
<svg fill="red" version="1.1" id="Layer_1" xmlns="http://www.w3.org/2000/svg" xmlns:xlink="http://www.w3.org/1999/xlink" x="0px" y="0px"
	 viewBox="0 0 512 512" style="enable-background:new 0 0 512 512;" xml:space="preserve">
<g>
	<g>
		<path d="M486.4,12.8H25.6C11.468,12.815,0.015,24.268,0,38.4v358.4c0.015,14.132,11.468,25.585,25.6,25.6h153.6v34.088
			c0.738,13.425-9.547,24.906-22.972,25.643c-0.875,0.048-1.752,0.049-2.628,0.002h-51.2c-4.713,0-8.533,3.82-8.533,8.533
			s3.82,8.533,8.533,8.533h307.2c4.713,0,8.533-3.82,8.533-8.533s-3.82-8.533-8.533-8.533h-51.2
			c-13.42,0.719-24.881-9.577-25.6-22.997c-0.046-0.867-0.046-1.736,0-2.603V422.4h153.6c14.132-0.015,25.585-11.468,25.6-25.6V38.4
			C511.985,24.268,500.532,12.815,486.4,12.8z M188.423,482.133c5.004-7.61,7.726-16.493,7.844-25.6V422.4h119.467v34.133
			c0.118,9.107,2.839,17.99,7.844,25.6H188.423z M494.933,396.8c-0.005,4.711-3.822,8.529-8.533,8.533H25.6
			c-4.711-0.005-8.529-3.822-8.533-8.533v-85.333h477.867V396.8z M494.933,294.4H17.067v-256c0.005-4.711,3.822-8.529,8.533-8.533
			h460.8c4.711,0.005,8.529,3.822,8.533,8.533V294.4z"/>
	</g>
</g>
<g>
	<g>
		<path d="M256,328.533c-16.495,0-29.867,13.372-29.867,29.867s13.372,29.867,29.867,29.867c16.495,0,29.867-13.372,29.867-29.867
			C285.847,341.913,272.487,328.553,256,328.533z M256,371.2c-7.069,0-12.8-5.731-12.8-12.8c0-7.069,5.731-12.8,12.8-12.8
			c7.069,0,12.8,5.731,12.8,12.8C268.792,365.466,263.066,371.192,256,371.2z"/>
	</g>
</g>
<g>
	<g>
		<path d="M229.717,444.755c-0.433-1.033-1.039-1.984-1.792-2.813c-2.065-1.976-4.958-2.834-7.767-2.304
			c-0.534,0.091-1.051,0.263-1.533,0.508c-0.546,0.187-1.064,0.447-1.542,0.771l-1.276,1.025c-0.753,0.828-1.359,1.78-1.792,2.813
			c-0.911,2.067-0.911,4.421,0,6.487c0.433,1.034,1.039,1.987,1.792,2.817c0.403,0.367,0.829,0.708,1.275,1.021
			c0.477,0.324,0.996,0.583,1.542,0.771c0.483,0.245,1,0.418,1.533,0.512c0.565,0.098,1.136,0.156,1.709,0.171
			c2.259-0.035,4.421-0.918,6.059-2.475c0.753-0.83,1.359-1.783,1.792-2.817C230.628,449.175,230.628,446.821,229.717,444.755z"/>
	</g>
</g>
<g>
	<g>
		<path d="M264.358,446.292c-0.09-0.536-0.261-1.054-0.508-1.537c-0.189-0.542-0.446-1.057-0.767-1.533
			c-0.315-0.447-0.657-0.875-1.025-1.279c-3.421-3.158-8.695-3.158-12.117,0c-0.368,0.405-0.71,0.832-1.025,1.279
			c-0.324,0.474-0.582,0.99-0.767,1.533c-0.246,0.485-0.42,1.003-0.517,1.537c-0.097,0.565-0.153,1.136-0.167,1.709
			c0,4.713,3.82,8.533,8.533,8.533s8.533-3.82,8.533-8.533C264.521,447.427,264.462,446.855,264.358,446.292z"/>
	</g>
</g>
<g>
	<g>
		<path d="M296.192,441.941c-2.476-2.379-6.117-3.082-9.3-1.796c-1.055,0.393-2.015,1.005-2.817,1.796
			c-1.561,1.634-2.445,3.799-2.475,6.059c0.014,1.115,0.246,2.216,0.683,3.242c0.433,1.034,1.039,1.987,1.792,2.817
			c0.803,0.788,1.762,1.399,2.817,1.792c1.012,0.478,2.122,0.712,3.241,0.683c4.732-0.019,8.553-3.87,8.534-8.602
			C298.659,445.688,297.77,443.537,296.192,441.941z"/>
	</g>
</g>
<g>
	<g>
		<path d="M65.657,49.434c-3.319-3.259-8.637-3.259-11.956,0L36.634,66.5c-3.332,3.333-3.331,8.736,0.002,12.068
			c1.6,1.599,3.769,2.498,6.031,2.498c2.264,0.003,4.435-0.897,6.033-2.5L65.766,61.5C69.068,58.137,69.019,52.735,65.657,49.434z"
			/>
	</g>
</g>
<g>
	<g>
		<path d="M116.89,49.433c-3.323-3.281-8.667-3.281-11.99,0l-51.2,51.2c-3.332,3.331-3.333,8.732-0.003,12.064
			c0.001,0.001,0.002,0.002,0.003,0.003c3.33,3.332,8.732,3.333,12.064,0.003c0.001-0.001,0.002-0.002,0.003-0.003l51.2-51.2
			C120.278,58.146,120.243,52.744,116.89,49.433z"/>
	</g>
</g>
<g>
</g>
<g>
</g>
<g>
</g>
<g>
</g>
<g>
</g>
<g>
</g>
<g>
</g>
<g>
</g>
<g>
</g>
<g>
</g>
<g>
</g>
<g>
</g>
<g>
</g>
<g>
</g>
<g>
</g>
</svg>
