<?xml version="1.0" encoding="iso-8859-1"?>
<!-- Generator: Adobe Illustrator 18.0.0, SVG Export Plug-In . SVG Version: 6.00 Build 0)  -->
<!DOCTYPE svg PUBLIC "-//W3C//DTD SVG 1.1//EN" "http://www.w3.org/Graphics/SVG/1.1/DTD/svg11.dtd">
<svg fill="red" version="1.1" id="Capa_1" xmlns="http://www.w3.org/2000/svg" xmlns:xlink="http://www.w3.org/1999/xlink" x="0px" y="0px"
	 viewBox="0 0 470.48 470.48" style="enable-background:new 0 0 470.48 470.48;" xml:space="preserve">
<path d="M445.642,277.207c0-13.459-10.949-24.409-24.408-24.409c-3.629,0-7.072,0.802-10.17,2.228
	c-5.219-6.565-11.001-13.198-17.254-19.794c20.266-21.414,35.199-42.77,43.291-61.979c9.194-21.827,9.61-41.065,1.202-55.634
	c-8.413-14.568-25.28-23.829-48.777-26.78c-20.688-2.6-46.648-0.342-75.328,6.506c-5.094-17.139-11.103-32.466-17.906-45.683
	c4.762-4.457,7.746-10.791,7.746-17.813c0-13.459-10.95-24.409-24.409-24.409c-4.566,0-8.842,1.263-12.501,3.455
	C256.769,4.345,245.839,0,234.582,0c-16.82,0-33.273,9.977-47.581,28.852c-12.593,16.614-23.624,40.228-32.039,68.494
	c-28.685-6.849-54.65-9.105-75.332-6.507c-23.497,2.952-40.364,12.212-48.777,26.781c-8.408,14.568-7.992,33.806,1.202,55.633
	c8.092,19.212,23.028,40.571,43.297,61.987c-20.273,21.414-35.209,42.773-43.301,61.987c-9.192,21.826-9.606,41.064-1.198,55.633
	c7.405,12.826,20.812,21.319,39.875,25.29c1.193,12.354,11.631,22.045,24.293,22.045c12.208,0,22.351-9.009,24.13-20.728
	c11.273-1.219,23.279-3.344,35.811-6.335c8.415,28.267,19.446,51.882,32.039,68.496c14.308,18.875,30.761,28.853,47.581,28.853
	c16.816,0,33.267-9.977,47.572-28.853c12.591-16.614,23.623-40.227,32.037-68.49c20.946,4.999,40.439,7.549,57.484,7.549
	c6.3,0,12.268-0.348,17.849-1.049c23.499-2.951,40.366-12.21,48.778-26.777c8.573-14.849,7.977-34.398-1.672-56.73
	C442.125,291.651,445.642,284.833,445.642,277.207z M435.642,277.207c0,7.945-6.464,14.409-14.408,14.409
	c-7.945,0-14.409-6.464-14.409-14.409c0-7.945,6.464-14.409,14.409-14.409C429.178,262.798,435.642,269.262,435.642,277.207z
	 M429.642,122.619c13.568,23.509-2.433,62.72-42.815,105.449c-16.487-16.48-35.632-32.539-56.99-47.813
	c-2.561-26.157-6.9-50.773-12.922-73.282C374.109,93.359,416.064,99.109,429.642,122.619z M307.22,361.056
	c-19.542-5.236-39.884-12.431-60.659-21.452c12.442-6.015,24.84-12.574,36.973-19.584c12.227-7.064,24.105-14.519,35.448-22.226
	C316.405,320.272,312.461,341.488,307.22,361.056z M161.935,361.056c-5.242-19.568-9.186-40.784-11.762-63.263
	c11.343,7.707,23.221,15.162,35.449,22.227c12.148,7.014,24.547,13.573,36.98,19.583
	C201.81,348.629,181.465,355.825,161.935,361.056z M161.935,109.423c19.55,5.236,39.895,12.428,60.667,21.444
	c-12.434,6.01-24.832,12.57-36.98,19.584c-12.227,7.064-24.104,14.519-35.448,22.226
	C152.751,150.193,156.694,128.98,161.935,109.423z M190.624,311.361c-14.541-8.401-28.577-17.358-41.774-26.638
	c-1.441-16.152-2.178-32.783-2.178-49.483c0-16.698,0.738-33.333,2.179-49.494c13.197-9.279,27.233-18.236,41.771-26.636
	c14.421-8.326,29.199-16.002,43.96-22.854c14.773,6.857,29.548,14.533,43.949,22.853c14.54,8.401,28.576,17.358,41.773,26.638
	c1.441,16.161,2.178,32.796,2.178,49.493c0,16.7-0.738,33.332-2.178,49.483c-13.197,9.279-27.233,18.236-41.773,26.637
	c-14.402,8.32-29.177,15.996-43.949,22.853C219.823,327.363,205.044,319.687,190.624,311.361z M138.194,277.036
	c-18.165-13.451-34.564-27.468-48.896-41.797c14.322-14.327,30.721-28.347,48.896-41.805c-1.006,13.739-1.522,27.752-1.522,41.806
	C136.672,249.295,137.188,263.305,138.194,277.036z M307.22,109.423c5.241,19.557,9.184,40.769,11.761,63.253
	c-11.343-7.707-23.221-15.161-35.448-22.226c-12.133-7.01-24.53-13.569-36.972-19.584
	C267.323,121.853,287.665,114.66,307.22,109.423z M330.961,193.433c18.174,13.458,34.572,27.477,48.896,41.806
	c-14.332,14.329-30.73,28.346-48.896,41.797c1.005-13.731,1.521-27.741,1.521-41.796
	C332.483,221.185,331.967,207.172,330.961,193.433z M294.038,33.849c0,7.945-6.464,14.409-14.409,14.409
	s-14.409-6.464-14.409-14.409s6.464-14.409,14.409-14.409S294.038,25.904,294.038,33.849z M234.582,10
	c8.501,0,16.938,3.282,25.136,9.755c-2.829,3.984-4.499,8.846-4.499,14.094c0,13.459,10.95,24.409,24.409,24.409
	c2.837,0,5.56-0.492,8.095-1.385c6.335,12.42,11.96,26.818,16.771,42.929c-22.498,6.035-45.981,14.586-69.912,25.449
	c-23.943-10.865-47.43-19.416-69.921-25.449C181.479,43.461,207.439,10,234.582,10z M39.513,122.62
	C53.09,99.109,95.046,93.36,152.24,106.973c-6.022,22.509-10.361,47.125-12.922,73.282c-21.36,15.275-40.504,31.333-56.99,47.813
	C41.946,185.339,25.945,146.128,39.513,122.62z M95.021,390.195c-7.945,0-14.409-6.464-14.409-14.409
	c0-7.945,6.464-14.409,14.409-14.409c7.944,0,14.408,6.464,14.408,14.409C109.429,383.731,102.965,390.195,95.021,390.195z
	 M95.021,351.377c-10.793,0-19.966,7.044-23.18,16.774c-15.651-3.435-26.525-10.241-32.328-20.291
	c-13.572-23.516,2.429-62.727,42.815-105.45c16.499,16.483,35.644,32.54,56.99,47.804c2.56,26.148,6.898,50.767,12.922,73.289
	c-11.783,2.798-23.061,4.801-33.643,5.969C115.807,359.064,106.297,351.377,95.021,351.377z M234.582,460.48
	c-27.143,0-53.104-33.462-69.921-89.802c22.467-6.028,45.953-14.582,69.921-25.459c23.946,10.871,47.429,19.425,69.912,25.458
	C287.677,427.018,261.72,460.48,234.582,460.48z M429.642,347.859c-13.571,23.503-55.53,29.251-112.727,15.646
	c6.024-22.523,10.362-47.142,12.922-73.291c21.348-15.266,40.492-31.323,56.992-47.807c5.863,6.2,11.286,12.42,16.191,18.573
	c-3.85,4.316-6.195,10.001-6.195,16.227c0,13.459,10.95,24.409,24.409,24.409c2.247,0,4.42-0.311,6.488-0.882
	C435.811,319.762,436.496,335.99,429.642,347.859z"/>
<g>
</g>
<g>
</g>
<g>
</g>
<g>
</g>
<g>
</g>
<g>
</g>
<g>
</g>
<g>
</g>
<g>
</g>
<g>
</g>
<g>
</g>
<g>
</g>
<g>
</g>
<g>
</g>
<g>
</g>
</svg>
