<?xml version="1.0" encoding="iso-8859-1"?>
<!-- Generator: Adobe Illustrator 19.0.0, SVG Export Plug-In . SVG Version: 6.00 Build 0)  -->
<svg fill="red" version="1.1" id="Capa_1" xmlns="http://www.w3.org/2000/svg" xmlns:xlink="http://www.w3.org/1999/xlink" x="0px" y="0px"
	 viewBox="0 0 469.333 469.333" style="enable-background:new 0 0 469.333 469.333;" xml:space="preserve">
<g>
	<g>
		<path d="M458.667,0h-448C4.771,0,0,4.771,0,10.667v64c0,5.896,4.771,10.667,10.667,10.667h74.635
			C84.76,183.396,76.865,412.177,45,452c-2.563,3.208-3.052,7.594-1.281,11.292c1.781,3.688,5.51,6.042,9.615,6.042h64
			c3.24,0,6.302-1.469,8.333-4c40.729-50.927,44.625-316.167,44.969-380h128.031v309.333c0,41.167,33.5,74.667,74.667,74.667h64
			c3.427,0,6.646-1.646,8.656-4.427c2-2.781,2.552-6.365,1.458-9.615l-21.333-64C424.667,386.938,420.594,384,416,384l-21.302,0.01
			h-0.01c-5.875,0-10.667-4.781-10.667-10.656L384,85.333h74.667c5.896,0,10.667-4.771,10.667-10.667v-64
			C469.333,4.771,464.563,0,458.667,0z M448,64h-74.667c-2.833,0-5.542,1.125-7.542,3.125s-3.125,4.708-3.125,7.542l0.021,298.698
			c0.021,17.635,14.365,31.979,32,31.979c0.01,0,0.021,0,0.031,0l13.594-0.01L422.531,448h-49.198
			C343.927,448,320,424.073,320,394.667v-320C320,68.771,315.229,64,309.333,64H160c-5.896,0-10.667,4.771-10.667,10.667
			c0,88.354-6.844,322.208-37.573,373.333H71.25c34.344-83.344,35.417-341.813,35.417-373.333C106.667,68.771,101.896,64,96,64
			H21.333V21.333H448V64z"/>
	</g>
</g>
<g>
</g>
<g>
</g>
<g>
</g>
<g>
</g>
<g>
</g>
<g>
</g>
<g>
</g>
<g>
</g>
<g>
</g>
<g>
</g>
<g>
</g>
<g>
</g>
<g>
</g>
<g>
</g>
<g>
</g>
</svg>
